<svg width="378" height="106" viewBox="0 0 378 106" fill="none" xmlns="http://www.w3.org/2000/svg">
<g clip-path="url(#clip0_1_554)">
<path d="M53.0002 0H52.9998C23.7288 0 0 23.6717 0 52.8723V53.1277C0 82.3283 23.7288 106 52.9998 106H53.0002C82.2712 106 106 82.3283 106 53.1277V52.8723C106 23.6717 82.2712 0 53.0002 0Z" fill="#1F2121"/>
<path d="M21.1965 51.4785C23.7775 54.0657 27.9621 54.0657 30.5431 51.4785L46.3646 35.6188C48.9456 33.0315 48.9456 28.8368 46.3646 26.2496C43.7836 23.6624 39.599 23.6624 37.018 26.2496L21.1965 42.1094C18.6155 44.6966 18.6155 48.8913 21.1965 51.4785Z" fill="#14DAB1"/>
<path d="M37.0844 26.2488C34.5034 28.836 34.5034 33.0307 37.0844 35.6179L50.6639 49.2303C53.2449 51.8175 57.4295 51.8175 60.0105 49.2302C62.5915 46.643 62.5915 42.4483 60.0105 39.8611L46.431 26.2488C43.85 23.6615 39.6654 23.6615 37.0844 26.2488Z" fill="#14DAB1"/>
<path d="M84.6221 43.7861C82.0502 41.2079 77.8803 41.2079 75.3084 43.7861L48.8001 70.3584C46.2282 72.9365 46.2282 77.1165 48.8001 79.6946C51.372 82.2728 55.5419 82.2728 58.1138 79.6946L84.6221 53.1223C87.194 50.5442 87.194 46.3642 84.6221 43.7861Z" fill="#F9F7F7"/>
<path d="M58.1138 79.6946C60.6857 77.1165 60.6857 72.9365 58.1138 70.3584L44.5015 56.7132C41.9295 54.135 37.7596 54.135 35.1877 56.7132C32.6158 59.2913 32.6158 63.4713 35.1877 66.0494L48.8001 79.6946C51.372 82.2728 55.5419 82.2728 58.1138 79.6946Z" fill="#F9F7F7"/>
<path d="M174.881 68.0876H152.604L147.555 81.9844H138.74L158.694 28.9678H168.951L188.904 81.9844H179.849L174.881 68.0876ZM172.317 61.0991L166.226 44.0695L163.822 36.4383H163.582L161.338 43.9088L155.088 61.0991H172.317Z" fill="#1F2121"/>
<path d="M229.03 41.8203L213.083 81.9844H203.707L187.681 41.8203H197.136L208.435 74.9958L220.055 41.8203H229.03Z" fill="#1F2121"/>
<path d="M271.587 60.6974C271.587 62.2504 271.48 63.7231 271.267 65.1155H241.937C242.418 68.6499 243.674 71.3543 245.704 73.2286C247.734 75.0494 250.351 75.9598 253.557 75.9598C256.174 75.9598 258.338 75.5046 260.048 74.5942C261.811 73.6302 263.013 72.2647 263.654 70.4974L270.786 73.4696C267.794 79.6816 262.051 82.7876 253.557 82.7876C247.253 82.7876 242.311 80.9401 238.732 77.245C235.206 73.5499 233.443 68.4357 233.443 61.9023C233.443 55.3154 235.153 50.2012 238.572 46.5597C241.991 42.8646 246.799 41.017 252.996 41.017C258.872 41.017 263.44 42.811 266.699 46.399C269.958 49.987 271.587 54.7531 271.587 60.6974ZM252.996 47.8449C249.897 47.8449 247.386 48.7553 245.463 50.5761C243.593 52.3968 242.418 55.0477 241.937 58.5285H263.574C263.146 55.1548 261.998 52.5307 260.128 50.6564C258.311 48.7821 255.934 47.8449 252.996 47.8449Z" fill="#1F2121"/>
<path d="M303.547 41.017C307.981 41.017 311.587 42.3023 314.365 44.8728C317.197 47.4433 318.612 51.1384 318.612 55.9581V81.9844H310.038V58.6892C310.038 51.6203 307.18 48.0859 301.463 48.0859C298.472 48.0859 295.907 49.1302 293.771 51.2187C291.634 53.2537 290.565 56.4132 290.565 60.6974V81.9844H281.991V41.8203H289.604L290.004 48.4875C291.34 45.9706 293.183 44.0963 295.533 42.8646C297.884 41.6329 300.555 41.017 303.547 41.017Z" fill="#1F2121"/>
<path d="M335.594 35.0727C333.777 35.0727 332.362 34.6175 331.347 33.7072C330.332 32.7432 329.824 31.4044 329.824 29.6908C329.824 27.9771 330.332 26.6651 331.347 25.7547C332.362 24.8443 333.777 24.3891 335.594 24.3891C337.41 24.3891 338.799 24.8443 339.761 25.7547C340.776 26.6651 341.283 27.9771 341.283 29.6908C341.283 31.4044 340.776 32.7432 339.761 33.7072C338.799 34.6175 337.41 35.0727 335.594 35.0727ZM339.841 81.9844H331.267V41.8203H339.841V81.9844Z" fill="#1F2121"/>
<path d="M373.593 41.017C375.462 41.017 376.932 41.2848 378 41.8203L376.638 49.6925C375.409 48.9963 373.726 48.6482 371.589 48.6482C369.88 48.6482 368.25 49.1034 366.701 50.0138C365.205 50.9242 363.95 52.2897 362.935 54.1105C361.973 55.9313 361.492 58.1269 361.492 60.6974V81.9844H352.918V41.8203H360.21L360.931 49.0498C363.175 43.6946 367.396 41.017 373.593 41.017Z" fill="#1F2121"/>
</g>
<defs>
<clipPath id="clip0_1_554">
<rect width="378" height="106" fill="white"/>
</clipPath>
</defs>
</svg>
